<svg xmlns="http://www.w3.org/2000/svg" xmlns:xlink="http://www.w3.org/1999/xlink" id="Group_6127" data-name="Group 6127" width="44.003" height="46.223" viewBox="0 0 44.003 46.223"><defs><clipPath id="clip-path"><rect id="Rectangle_789" data-name="Rectangle 789" width="44.003" height="46.223" fill="#fff"></rect></clipPath><clipPath id="clip-path-3"><path id="Path_8036" data-name="Path 8036" d="M112.131,64.023s-11.285,9.483-11.611,9.77l-4.444-3.918a2.6,2.6,0,0,0-3.766,3.542l5.7,7.32c.025.032.059.073.085.1a3.126,3.126,0,0,0,4.407.357l12.389-14.091.037-.039a2.072,2.072,0,0,0-2.794-3.045" transform="translate(-91.762 -63.579)" fill="#fff"></path></clipPath><clipPath id="clip-path-5"><rect id="Rectangle_787" data-name="Rectangle 787" width="23.721" height="11.975" fill="#fff"></rect></clipPath></defs><g id="Group_5827" data-name="Group 5827" clip-path="url(#clip-path)"><g id="Group_5819" data-name="Group 5819"><g id="Group_5818" data-name="Group 5818" clip-path="url(#clip-path)"><path id="Path_8035" data-name="Path 8035" d="M115.537,69.37a2.072,2.072,0,0,0-2.91-.348s-11.285,9.483-11.611,9.77l-4.444-3.919a2.6,2.6,0,0,0-3.312-.1,2.207,2.207,0,0,0-.293,3.321L98.5,85.736c.025.032.058.073.085.1a3.126,3.126,0,0,0,4.407.357l12.389-14.414.037-.04a1.663,1.663,0,0,0,.116-2.374" transform="translate(-77.432 -57.498)" fill="#fff"></path></g></g><g id="Group_5821" data-name="Group 5821" transform="translate(14.826 10.272)"><g id="Group_5820" data-name="Group 5820" clip-path="url(#clip-path-3)"><rect id="Rectangle_786" data-name="Rectangle 786" width="24.253" height="18.737" transform="translate(-0.333 0)" fill="#fff"></rect></g></g><g id="Group_5826" data-name="Group 5826"><g id="Group_5825" data-name="Group 5825" clip-path="url(#clip-path)"><g id="Group_5824" data-name="Group 5824" transform="translate(14.827 10.272)" style="mix-blend-mode: multiply;isolation: isolate"><g id="Group_5823" data-name="Group 5823"><g id="Group_5822" data-name="Group 5822" clip-path="url(#clip-path-5)"><path id="Path_8037" data-name="Path 8037" d="M92.769,71.064a2.6,2.6,0,0,1,3.312.1l3.583,4.109a.812.812,0,0,0,1.151.074c2.45-2.17,11.321-10.035,11.321-10.035a2.07,2.07,0,0,1,3.249.983,2.072,2.072,0,0,0-3.249-2.275s-11.285,9.483-11.611,9.77l-4.444-3.918a2.6,2.6,0,0,0-4.231,2.6,2.582,2.582,0,0,1,.919-1.407" transform="translate(-91.768 -63.579)" fill="#fff"></path></g></g></g></g></g></g></svg>